<svg width="260" height="35" viewBox="0 0 260 35" fill="none" xmlns="http://www.w3.org/2000/svg">
<rect width="260" height="35" fill="#E1E1E1"/>
<g clip-path="url(#clip0_0_119)">
<g filter="url(#filter0_d_0_119)">
<rect x="-20" y="-60" width="1193" height="780" rx="10" fill="white"/>
</g>
<rect width="260" height="35" rx="17.5" fill="#F2F3F5"/>
<path d="M46.46 19.4844C46.46 19.252 46.4235 19.0469 46.3506 18.8691C46.2822 18.6868 46.1592 18.5228 45.9814 18.377C45.8083 18.2311 45.5667 18.0921 45.2568 17.96C44.9515 17.8278 44.5641 17.6934 44.0947 17.5566C43.6025 17.4108 43.1582 17.249 42.7617 17.0713C42.3652 16.889 42.0257 16.6816 41.7432 16.4492C41.4606 16.2168 41.2441 15.9502 41.0938 15.6494C40.9434 15.3486 40.8682 15.0046 40.8682 14.6172C40.8682 14.2298 40.9479 13.8721 41.1074 13.5439C41.2669 13.2158 41.4948 12.931 41.791 12.6895C42.0918 12.4434 42.4495 12.252 42.8643 12.1152C43.279 11.9785 43.7415 11.9102 44.252 11.9102C44.9993 11.9102 45.6328 12.0537 46.1523 12.3408C46.6764 12.6234 47.0752 12.9948 47.3486 13.4551C47.6221 13.9108 47.7588 14.3984 47.7588 14.918H46.4463C46.4463 14.5443 46.3665 14.2139 46.207 13.9268C46.0475 13.6351 45.806 13.4072 45.4824 13.2432C45.1589 13.0745 44.7487 12.9902 44.252 12.9902C43.7826 12.9902 43.3952 13.0609 43.0898 13.2021C42.7845 13.3434 42.5566 13.5348 42.4062 13.7764C42.2604 14.0179 42.1875 14.2936 42.1875 14.6035C42.1875 14.8132 42.2308 15.0046 42.3174 15.1777C42.4085 15.3464 42.5475 15.5036 42.7344 15.6494C42.9258 15.7952 43.1673 15.9297 43.459 16.0527C43.7552 16.1758 44.1084 16.2943 44.5186 16.4082C45.0837 16.5677 45.5713 16.7454 45.9814 16.9414C46.3916 17.1374 46.7288 17.3584 46.9932 17.6045C47.262 17.846 47.4603 18.1217 47.5879 18.4316C47.7201 18.737 47.7861 19.0833 47.7861 19.4707C47.7861 19.8763 47.7041 20.2432 47.54 20.5713C47.376 20.8994 47.1413 21.1797 46.8359 21.4121C46.5306 21.6445 46.1637 21.8245 45.7354 21.9521C45.3115 22.0752 44.8376 22.1367 44.3135 22.1367C43.8532 22.1367 43.3997 22.0729 42.9531 21.9453C42.5111 21.8177 42.1077 21.6263 41.7432 21.3711C41.3831 21.1159 41.0938 20.8014 40.875 20.4277C40.6608 20.0495 40.5537 19.612 40.5537 19.1152H41.8662C41.8662 19.457 41.9323 19.751 42.0645 19.9971C42.1966 20.2386 42.3766 20.4391 42.6045 20.5986C42.8369 20.7581 43.099 20.8766 43.3906 20.9541C43.6868 21.027 43.9945 21.0635 44.3135 21.0635C44.7738 21.0635 45.1634 20.9997 45.4824 20.8721C45.8014 20.7445 46.043 20.5622 46.207 20.3252C46.3757 20.0882 46.46 19.8079 46.46 19.4844ZM52.3457 22.1367C51.8307 22.1367 51.3636 22.0501 50.9443 21.877C50.5296 21.6992 50.1719 21.4508 49.8711 21.1318C49.5749 20.8128 49.347 20.4346 49.1875 19.9971C49.028 19.5596 48.9482 19.0811 48.9482 18.5615V18.2744C48.9482 17.6729 49.0371 17.1374 49.2148 16.668C49.3926 16.194 49.6341 15.793 49.9395 15.4648C50.2448 15.1367 50.5911 14.8883 50.9785 14.7197C51.3659 14.5511 51.7669 14.4668 52.1816 14.4668C52.7103 14.4668 53.166 14.5579 53.5488 14.7402C53.9362 14.9225 54.2529 15.1777 54.499 15.5059C54.7451 15.8294 54.9274 16.2122 55.0459 16.6543C55.1644 17.0918 55.2236 17.5703 55.2236 18.0898V18.6572H49.7002V17.625H53.959V17.5293C53.9408 17.2012 53.8724 16.8822 53.7539 16.5723C53.64 16.2624 53.4577 16.0072 53.207 15.8066C52.9564 15.6061 52.6146 15.5059 52.1816 15.5059C51.8945 15.5059 51.6302 15.5674 51.3887 15.6904C51.1471 15.8089 50.9398 15.9867 50.7666 16.2236C50.5934 16.4606 50.459 16.75 50.3633 17.0918C50.2676 17.4336 50.2197 17.8278 50.2197 18.2744V18.5615C50.2197 18.9124 50.2676 19.2428 50.3633 19.5527C50.4635 19.8581 50.6071 20.127 50.7939 20.3594C50.9854 20.5918 51.2155 20.7741 51.4844 20.9062C51.7578 21.0384 52.0677 21.1045 52.4141 21.1045C52.8607 21.1045 53.2389 21.0133 53.5488 20.8311C53.8587 20.6488 54.1299 20.4049 54.3623 20.0996L55.1279 20.708C54.9684 20.9495 54.7656 21.1797 54.5195 21.3984C54.2734 21.6172 53.9704 21.7949 53.6104 21.9316C53.2549 22.0684 52.8333 22.1367 52.3457 22.1367ZM61.0615 20.7354V16.9277C61.0615 16.6361 61.0023 16.3831 60.8838 16.1689C60.7699 15.9502 60.5967 15.7816 60.3643 15.6631C60.1318 15.5446 59.8447 15.4854 59.5029 15.4854C59.1839 15.4854 58.9036 15.54 58.6621 15.6494C58.4251 15.7588 58.2383 15.9023 58.1016 16.0801C57.9694 16.2578 57.9033 16.4492 57.9033 16.6543H56.6387C56.6387 16.39 56.707 16.1279 56.8438 15.8682C56.9805 15.6084 57.1764 15.3737 57.4316 15.1641C57.6914 14.9499 58.0013 14.7812 58.3613 14.6582C58.7259 14.5306 59.1315 14.4668 59.5781 14.4668C60.1159 14.4668 60.5898 14.5579 61 14.7402C61.4147 14.9225 61.7383 15.1982 61.9707 15.5674C62.2077 15.932 62.3262 16.39 62.3262 16.9414V20.3867C62.3262 20.6328 62.3467 20.8949 62.3877 21.1729C62.4333 21.4508 62.4993 21.6901 62.5859 21.8906V22H61.2666C61.2028 21.8542 61.1527 21.6605 61.1162 21.4189C61.0798 21.1729 61.0615 20.945 61.0615 20.7354ZM61.2803 17.5156L61.2939 18.4043H60.0156C59.6556 18.4043 59.3343 18.4339 59.0518 18.4932C58.7692 18.5479 58.5322 18.6322 58.3408 18.7461C58.1494 18.86 58.0036 19.0036 57.9033 19.1768C57.8031 19.3454 57.7529 19.5436 57.7529 19.7715C57.7529 20.0039 57.8053 20.2158 57.9102 20.4072C58.015 20.5986 58.1722 20.7513 58.3818 20.8652C58.596 20.9746 58.8581 21.0293 59.168 21.0293C59.5553 21.0293 59.8971 20.9473 60.1934 20.7832C60.4896 20.6191 60.7243 20.4186 60.8975 20.1816C61.0752 19.9447 61.1709 19.7145 61.1846 19.4912L61.7246 20.0996C61.6927 20.291 61.6061 20.5029 61.4648 20.7354C61.3236 20.9678 61.1344 21.1911 60.8975 21.4053C60.665 21.6149 60.387 21.7904 60.0635 21.9316C59.7445 22.0684 59.3844 22.1367 58.9834 22.1367C58.4821 22.1367 58.0423 22.0387 57.6641 21.8428C57.2904 21.6468 56.9987 21.3848 56.7891 21.0566C56.584 20.724 56.4814 20.3525 56.4814 19.9424C56.4814 19.5459 56.5589 19.1973 56.7139 18.8965C56.8688 18.5911 57.0921 18.3382 57.3838 18.1377C57.6755 17.9326 58.0264 17.7777 58.4365 17.6729C58.8467 17.568 59.3047 17.5156 59.8105 17.5156H61.2803ZM65.5801 15.7656V22H64.3154V14.6035H65.5459L65.5801 15.7656ZM67.8906 14.5625L67.8838 15.7383C67.779 15.7155 67.6787 15.7018 67.583 15.6973C67.4919 15.6882 67.387 15.6836 67.2686 15.6836C66.9769 15.6836 66.7194 15.7292 66.4961 15.8203C66.2728 15.9115 66.0837 16.0391 65.9287 16.2031C65.7738 16.3672 65.6507 16.5632 65.5596 16.791C65.473 17.0143 65.416 17.2604 65.3887 17.5293L65.0332 17.7344C65.0332 17.2878 65.0765 16.8685 65.1631 16.4766C65.2542 16.0846 65.3932 15.7383 65.5801 15.4375C65.7669 15.1322 66.0039 14.8952 66.291 14.7266C66.5827 14.5534 66.929 14.4668 67.3301 14.4668C67.4212 14.4668 67.526 14.4782 67.6445 14.501C67.763 14.5192 67.8451 14.5397 67.8906 14.5625ZM71.8828 21.0977C72.1836 21.0977 72.4616 21.0361 72.7168 20.9131C72.972 20.79 73.1816 20.6214 73.3457 20.4072C73.5098 20.1885 73.6032 19.9401 73.626 19.6621H74.8291C74.8063 20.0996 74.6582 20.5075 74.3848 20.8857C74.1159 21.2594 73.7627 21.5625 73.3252 21.7949C72.8877 22.0228 72.4069 22.1367 71.8828 22.1367C71.3268 22.1367 70.8415 22.0387 70.4268 21.8428C70.0166 21.6468 69.6748 21.3779 69.4014 21.0361C69.1325 20.6943 68.9297 20.3024 68.793 19.8604C68.6608 19.4137 68.5947 18.9421 68.5947 18.4453V18.1582C68.5947 17.6615 68.6608 17.1921 68.793 16.75C68.9297 16.3034 69.1325 15.9092 69.4014 15.5674C69.6748 15.2256 70.0166 14.9567 70.4268 14.7607C70.8415 14.5648 71.3268 14.4668 71.8828 14.4668C72.4616 14.4668 72.9674 14.5853 73.4004 14.8223C73.8333 15.0547 74.1729 15.3737 74.4189 15.7793C74.6696 16.1803 74.8063 16.6361 74.8291 17.1465H73.626C73.6032 16.8411 73.5166 16.5654 73.3662 16.3193C73.2204 16.0732 73.0199 15.8773 72.7646 15.7314C72.514 15.5811 72.2201 15.5059 71.8828 15.5059C71.4954 15.5059 71.1696 15.5833 70.9053 15.7383C70.6455 15.8887 70.4382 16.0938 70.2832 16.3535C70.1328 16.6087 70.0234 16.8936 69.9551 17.208C69.8913 17.5179 69.8594 17.8346 69.8594 18.1582V18.4453C69.8594 18.7689 69.8913 19.0879 69.9551 19.4023C70.0189 19.7168 70.126 20.0016 70.2764 20.2568C70.4313 20.512 70.6387 20.7171 70.8984 20.8721C71.1628 21.0225 71.4909 21.0977 71.8828 21.0977ZM77.5156 11.5V22H76.251V11.5H77.5156ZM77.2148 18.0215L76.6885 18.001C76.693 17.4951 76.7682 17.028 76.9141 16.5996C77.0599 16.1667 77.265 15.7907 77.5293 15.4717C77.7936 15.1527 78.1081 14.9066 78.4727 14.7334C78.8418 14.5557 79.2497 14.4668 79.6963 14.4668C80.0609 14.4668 80.389 14.5169 80.6807 14.6172C80.9723 14.7129 81.2207 14.8678 81.4258 15.082C81.6354 15.2962 81.7949 15.5742 81.9043 15.916C82.0137 16.2533 82.0684 16.6657 82.0684 17.1533V22H80.7969V17.1396C80.7969 16.7523 80.7399 16.4424 80.626 16.21C80.512 15.973 80.3457 15.8021 80.127 15.6973C79.9082 15.5879 79.6393 15.5332 79.3203 15.5332C79.0059 15.5332 78.7188 15.5993 78.459 15.7314C78.2038 15.8636 77.9827 16.0459 77.7959 16.2783C77.6136 16.5107 77.4701 16.7773 77.3652 17.0781C77.265 17.3743 77.2148 17.6888 77.2148 18.0215ZM87.0996 18.3838V18.2266C87.0996 17.6934 87.1771 17.1989 87.332 16.7432C87.487 16.2829 87.7103 15.8841 88.002 15.5469C88.2936 15.2051 88.6468 14.9408 89.0615 14.7539C89.4762 14.5625 89.9411 14.4668 90.4561 14.4668C90.9756 14.4668 91.4427 14.5625 91.8574 14.7539C92.2767 14.9408 92.6322 15.2051 92.9238 15.5469C93.2201 15.8841 93.4456 16.2829 93.6006 16.7432C93.7555 17.1989 93.833 17.6934 93.833 18.2266V18.3838C93.833 18.917 93.7555 19.4115 93.6006 19.8672C93.4456 20.3229 93.2201 20.7217 92.9238 21.0635C92.6322 21.4007 92.279 21.665 91.8643 21.8564C91.4541 22.0433 90.9893 22.1367 90.4697 22.1367C89.9502 22.1367 89.4831 22.0433 89.0684 21.8564C88.6536 21.665 88.2982 21.4007 88.002 21.0635C87.7103 20.7217 87.487 20.3229 87.332 19.8672C87.1771 19.4115 87.0996 18.917 87.0996 18.3838ZM88.3643 18.2266V18.3838C88.3643 18.7529 88.4076 19.1016 88.4941 19.4297C88.5807 19.7533 88.7106 20.0404 88.8838 20.291C89.0615 20.5417 89.2826 20.7399 89.5469 20.8857C89.8112 21.027 90.1188 21.0977 90.4697 21.0977C90.8161 21.0977 91.1191 21.027 91.3789 20.8857C91.6432 20.7399 91.862 20.5417 92.0352 20.291C92.2083 20.0404 92.3382 19.7533 92.4248 19.4297C92.516 19.1016 92.5615 18.7529 92.5615 18.3838V18.2266C92.5615 17.862 92.516 17.5179 92.4248 17.1943C92.3382 16.8662 92.2061 16.5768 92.0283 16.3262C91.8551 16.071 91.6364 15.8704 91.3721 15.7246C91.1123 15.5788 90.807 15.5059 90.4561 15.5059C90.1097 15.5059 89.8044 15.5788 89.54 15.7246C89.2803 15.8704 89.0615 16.071 88.8838 16.3262C88.7106 16.5768 88.5807 16.8662 88.4941 17.1943C88.4076 17.5179 88.3643 17.862 88.3643 18.2266ZM96.6836 15.7656V22H95.4189V14.6035H96.6494L96.6836 15.7656ZM98.9941 14.5625L98.9873 15.7383C98.8825 15.7155 98.7822 15.7018 98.6865 15.6973C98.5954 15.6882 98.4906 15.6836 98.3721 15.6836C98.0804 15.6836 97.8229 15.7292 97.5996 15.8203C97.3763 15.9115 97.1872 16.0391 97.0322 16.2031C96.8773 16.3672 96.7542 16.5632 96.6631 16.791C96.5765 17.0143 96.5195 17.2604 96.4922 17.5293L96.1367 17.7344C96.1367 17.2878 96.18 16.8685 96.2666 16.4766C96.3577 16.0846 96.4967 15.7383 96.6836 15.4375C96.8704 15.1322 97.1074 14.8952 97.3945 14.7266C97.6862 14.5534 98.0326 14.4668 98.4336 14.4668C98.5247 14.4668 98.6296 14.4782 98.748 14.501C98.8665 14.5192 98.9486 14.5397 98.9941 14.5625ZM107.942 20.0381C107.942 19.8558 107.901 19.6872 107.819 19.5322C107.742 19.3727 107.58 19.2292 107.334 19.1016C107.092 18.9694 106.728 18.8555 106.24 18.7598C105.83 18.6732 105.459 18.5706 105.126 18.4521C104.798 18.3337 104.518 18.1901 104.285 18.0215C104.057 17.8529 103.882 17.6546 103.759 17.4268C103.636 17.1989 103.574 16.9323 103.574 16.627C103.574 16.3353 103.638 16.0596 103.766 15.7998C103.898 15.54 104.082 15.3099 104.319 15.1094C104.561 14.9089 104.85 14.7516 105.188 14.6377C105.525 14.5238 105.901 14.4668 106.315 14.4668C106.908 14.4668 107.414 14.5716 107.833 14.7812C108.252 14.9909 108.574 15.2712 108.797 15.6221C109.02 15.9684 109.132 16.3535 109.132 16.7773H107.867C107.867 16.5723 107.806 16.374 107.683 16.1826C107.564 15.9867 107.389 15.8249 107.156 15.6973C106.928 15.5697 106.648 15.5059 106.315 15.5059C105.965 15.5059 105.68 15.5605 105.461 15.6699C105.247 15.7747 105.09 15.9092 104.989 16.0732C104.894 16.2373 104.846 16.4105 104.846 16.5928C104.846 16.7295 104.868 16.8525 104.914 16.9619C104.964 17.0667 105.051 17.1647 105.174 17.2559C105.297 17.3424 105.47 17.4245 105.693 17.502C105.917 17.5794 106.201 17.6569 106.548 17.7344C107.154 17.8711 107.653 18.0352 108.045 18.2266C108.437 18.418 108.729 18.6527 108.92 18.9307C109.111 19.2087 109.207 19.5459 109.207 19.9424C109.207 20.266 109.139 20.5622 109.002 20.8311C108.87 21.0999 108.676 21.3324 108.421 21.5283C108.17 21.7197 107.869 21.8701 107.519 21.9795C107.172 22.0843 106.783 22.1367 106.35 22.1367C105.698 22.1367 105.146 22.0205 104.695 21.7881C104.244 21.5557 103.902 21.2549 103.67 20.8857C103.438 20.5166 103.321 20.127 103.321 19.7168H104.593C104.611 20.0632 104.711 20.3389 104.894 20.5439C105.076 20.7445 105.299 20.888 105.563 20.9746C105.828 21.0566 106.09 21.0977 106.35 21.0977C106.696 21.0977 106.985 21.0521 107.218 20.9609C107.455 20.8698 107.635 20.7445 107.758 20.585C107.881 20.4255 107.942 20.2432 107.942 20.0381ZM113.965 14.6035V15.5742H109.966V14.6035H113.965ZM111.319 12.8057H112.584V20.168C112.584 20.4186 112.623 20.6077 112.7 20.7354C112.778 20.863 112.878 20.9473 113.001 20.9883C113.124 21.0293 113.256 21.0498 113.397 21.0498C113.502 21.0498 113.612 21.0407 113.726 21.0225C113.844 20.9997 113.933 20.9814 113.992 20.9678L113.999 22C113.899 22.0319 113.767 22.0615 113.603 22.0889C113.443 22.1208 113.249 22.1367 113.021 22.1367C112.712 22.1367 112.427 22.0752 112.167 21.9521C111.907 21.8291 111.7 21.624 111.545 21.3369C111.395 21.0452 111.319 20.6533 111.319 20.1611V12.8057ZM119.81 20.7354V16.9277C119.81 16.6361 119.75 16.3831 119.632 16.1689C119.518 15.9502 119.345 15.7816 119.112 15.6631C118.88 15.5446 118.593 15.4854 118.251 15.4854C117.932 15.4854 117.652 15.54 117.41 15.6494C117.173 15.7588 116.986 15.9023 116.85 16.0801C116.717 16.2578 116.651 16.4492 116.651 16.6543H115.387C115.387 16.39 115.455 16.1279 115.592 15.8682C115.729 15.6084 115.924 15.3737 116.18 15.1641C116.439 14.9499 116.749 14.7812 117.109 14.6582C117.474 14.5306 117.88 14.4668 118.326 14.4668C118.864 14.4668 119.338 14.5579 119.748 14.7402C120.163 14.9225 120.486 15.1982 120.719 15.5674C120.956 15.932 121.074 16.39 121.074 16.9414V20.3867C121.074 20.6328 121.095 20.8949 121.136 21.1729C121.181 21.4508 121.247 21.6901 121.334 21.8906V22H120.015C119.951 21.8542 119.901 21.6605 119.864 21.4189C119.828 21.1729 119.81 20.945 119.81 20.7354ZM120.028 17.5156L120.042 18.4043H118.764C118.404 18.4043 118.082 18.4339 117.8 18.4932C117.517 18.5479 117.28 18.6322 117.089 18.7461C116.897 18.86 116.752 19.0036 116.651 19.1768C116.551 19.3454 116.501 19.5436 116.501 19.7715C116.501 20.0039 116.553 20.2158 116.658 20.4072C116.763 20.5986 116.92 20.7513 117.13 20.8652C117.344 20.9746 117.606 21.0293 117.916 21.0293C118.303 21.0293 118.645 20.9473 118.941 20.7832C119.238 20.6191 119.472 20.4186 119.646 20.1816C119.823 19.9447 119.919 19.7145 119.933 19.4912L120.473 20.0996C120.441 20.291 120.354 20.5029 120.213 20.7354C120.072 20.9678 119.882 21.1911 119.646 21.4053C119.413 21.6149 119.135 21.7904 118.812 21.9316C118.493 22.0684 118.132 22.1367 117.731 22.1367C117.23 22.1367 116.79 22.0387 116.412 21.8428C116.038 21.6468 115.747 21.3848 115.537 21.0566C115.332 20.724 115.229 20.3525 115.229 19.9424C115.229 19.5459 115.307 19.1973 115.462 18.8965C115.617 18.5911 115.84 18.3382 116.132 18.1377C116.424 17.9326 116.774 17.7777 117.185 17.6729C117.595 17.568 118.053 17.5156 118.559 17.5156H120.028ZM124.328 15.7656V22H123.063V14.6035H124.294L124.328 15.7656ZM126.639 14.5625L126.632 15.7383C126.527 15.7155 126.427 15.7018 126.331 15.6973C126.24 15.6882 126.135 15.6836 126.017 15.6836C125.725 15.6836 125.467 15.7292 125.244 15.8203C125.021 15.9115 124.832 16.0391 124.677 16.2031C124.522 16.3672 124.399 16.5632 124.308 16.791C124.221 17.0143 124.164 17.2604 124.137 17.5293L123.781 17.7344C123.781 17.2878 123.825 16.8685 123.911 16.4766C124.002 16.0846 124.141 15.7383 124.328 15.4375C124.515 15.1322 124.752 14.8952 125.039 14.7266C125.331 14.5534 125.677 14.4668 126.078 14.4668C126.169 14.4668 126.274 14.4782 126.393 14.501C126.511 14.5192 126.593 14.5397 126.639 14.5625ZM131.246 14.6035V15.5742H127.247V14.6035H131.246ZM128.601 12.8057H129.865V20.168C129.865 20.4186 129.904 20.6077 129.981 20.7354C130.059 20.863 130.159 20.9473 130.282 20.9883C130.405 21.0293 130.537 21.0498 130.679 21.0498C130.784 21.0498 130.893 21.0407 131.007 21.0225C131.125 20.9997 131.214 20.9814 131.273 20.9678L131.28 22C131.18 22.0319 131.048 22.0615 130.884 22.0889C130.724 22.1208 130.531 22.1367 130.303 22.1367C129.993 22.1367 129.708 22.0752 129.448 21.9521C129.188 21.8291 128.981 21.624 128.826 21.3369C128.676 21.0452 128.601 20.6533 128.601 20.1611V12.8057ZM137.467 16.1826V22H136.202V14.6035H137.398L137.467 16.1826ZM137.166 18.0215L136.64 18.001C136.644 17.4951 136.719 17.028 136.865 16.5996C137.011 16.1667 137.216 15.7907 137.48 15.4717C137.745 15.1527 138.059 14.9066 138.424 14.7334C138.793 14.5557 139.201 14.4668 139.647 14.4668C140.012 14.4668 140.34 14.5169 140.632 14.6172C140.924 14.7129 141.172 14.8678 141.377 15.082C141.587 15.2962 141.746 15.5742 141.855 15.916C141.965 16.2533 142.02 16.6657 142.02 17.1533V22H140.748V17.1396C140.748 16.7523 140.691 16.4424 140.577 16.21C140.463 15.973 140.297 15.8021 140.078 15.6973C139.859 15.5879 139.59 15.5332 139.271 15.5332C138.957 15.5332 138.67 15.5993 138.41 15.7314C138.155 15.8636 137.934 16.0459 137.747 16.2783C137.565 16.5107 137.421 16.7773 137.316 17.0781C137.216 17.3743 137.166 17.6888 137.166 18.0215ZM147.01 22.1367C146.495 22.1367 146.028 22.0501 145.608 21.877C145.194 21.6992 144.836 21.4508 144.535 21.1318C144.239 20.8128 144.011 20.4346 143.852 19.9971C143.692 19.5596 143.612 19.0811 143.612 18.5615V18.2744C143.612 17.6729 143.701 17.1374 143.879 16.668C144.057 16.194 144.298 15.793 144.604 15.4648C144.909 15.1367 145.255 14.8883 145.643 14.7197C146.03 14.5511 146.431 14.4668 146.846 14.4668C147.374 14.4668 147.83 14.5579 148.213 14.7402C148.6 14.9225 148.917 15.1777 149.163 15.5059C149.409 15.8294 149.591 16.2122 149.71 16.6543C149.828 17.0918 149.888 17.5703 149.888 18.0898V18.6572H144.364V17.625H148.623V17.5293C148.605 17.2012 148.536 16.8822 148.418 16.5723C148.304 16.2624 148.122 16.0072 147.871 15.8066C147.62 15.6061 147.279 15.5059 146.846 15.5059C146.559 15.5059 146.294 15.5674 146.053 15.6904C145.811 15.8089 145.604 15.9867 145.431 16.2236C145.257 16.4606 145.123 16.75 145.027 17.0918C144.932 17.4336 144.884 17.8278 144.884 18.2744V18.5615C144.884 18.9124 144.932 19.2428 145.027 19.5527C145.128 19.8581 145.271 20.127 145.458 20.3594C145.649 20.5918 145.88 20.7741 146.148 20.9062C146.422 21.0384 146.732 21.1045 147.078 21.1045C147.525 21.1045 147.903 21.0133 148.213 20.8311C148.523 20.6488 148.794 20.4049 149.026 20.0996L149.792 20.708C149.632 20.9495 149.43 21.1797 149.184 21.3984C148.938 21.6172 148.634 21.7949 148.274 21.9316C147.919 22.0684 147.497 22.1367 147.01 22.1367ZM153.237 20.6875L155.138 14.6035H155.972L155.808 15.8135L153.873 22H153.06L153.237 20.6875ZM151.959 14.6035L153.579 20.7559L153.695 22H152.841L150.694 14.6035H151.959ZM157.79 20.708L159.335 14.6035H160.593L158.446 22H157.599L157.79 20.708ZM156.156 14.6035L158.016 20.585L158.228 22H157.421L155.432 15.7998L155.268 14.6035H156.156ZM168.324 21.0977C168.625 21.0977 168.903 21.0361 169.158 20.9131C169.413 20.79 169.623 20.6214 169.787 20.4072C169.951 20.1885 170.045 19.9401 170.067 19.6621H171.271C171.248 20.0996 171.1 20.5075 170.826 20.8857C170.557 21.2594 170.204 21.5625 169.767 21.7949C169.329 22.0228 168.848 22.1367 168.324 22.1367C167.768 22.1367 167.283 22.0387 166.868 21.8428C166.458 21.6468 166.116 21.3779 165.843 21.0361C165.574 20.6943 165.371 20.3024 165.234 19.8604C165.102 19.4137 165.036 18.9421 165.036 18.4453V18.1582C165.036 17.6615 165.102 17.1921 165.234 16.75C165.371 16.3034 165.574 15.9092 165.843 15.5674C166.116 15.2256 166.458 14.9567 166.868 14.7607C167.283 14.5648 167.768 14.4668 168.324 14.4668C168.903 14.4668 169.409 14.5853 169.842 14.8223C170.275 15.0547 170.614 15.3737 170.86 15.7793C171.111 16.1803 171.248 16.6361 171.271 17.1465H170.067C170.045 16.8411 169.958 16.5654 169.808 16.3193C169.662 16.0732 169.461 15.8773 169.206 15.7314C168.955 15.5811 168.661 15.5059 168.324 15.5059C167.937 15.5059 167.611 15.5833 167.347 15.7383C167.087 15.8887 166.88 16.0938 166.725 16.3535C166.574 16.6087 166.465 16.8936 166.396 17.208C166.333 17.5179 166.301 17.8346 166.301 18.1582V18.4453C166.301 18.7689 166.333 19.0879 166.396 19.4023C166.46 19.7168 166.567 20.0016 166.718 20.2568C166.873 20.512 167.08 20.7171 167.34 20.8721C167.604 21.0225 167.932 21.0977 168.324 21.0977ZM173.957 11.5V22H172.692V11.5H173.957ZM173.656 18.0215L173.13 18.001C173.134 17.4951 173.21 17.028 173.355 16.5996C173.501 16.1667 173.706 15.7907 173.971 15.4717C174.235 15.1527 174.549 14.9066 174.914 14.7334C175.283 14.5557 175.691 14.4668 176.138 14.4668C176.502 14.4668 176.83 14.5169 177.122 14.6172C177.414 14.7129 177.662 14.8678 177.867 15.082C178.077 15.2962 178.236 15.5742 178.346 15.916C178.455 16.2533 178.51 16.6657 178.51 17.1533V22H177.238V17.1396C177.238 16.7523 177.181 16.4424 177.067 16.21C176.953 15.973 176.787 15.8021 176.568 15.6973C176.35 15.5879 176.081 15.5332 175.762 15.5332C175.447 15.5332 175.16 15.5993 174.9 15.7314C174.645 15.8636 174.424 16.0459 174.237 16.2783C174.055 16.5107 173.911 16.7773 173.807 17.0781C173.706 17.3743 173.656 17.6888 173.656 18.0215ZM184.765 20.7354V16.9277C184.765 16.6361 184.705 16.3831 184.587 16.1689C184.473 15.9502 184.3 15.7816 184.067 15.6631C183.835 15.5446 183.548 15.4854 183.206 15.4854C182.887 15.4854 182.607 15.54 182.365 15.6494C182.128 15.7588 181.941 15.9023 181.805 16.0801C181.673 16.2578 181.606 16.4492 181.606 16.6543H180.342C180.342 16.39 180.41 16.1279 180.547 15.8682C180.684 15.6084 180.88 15.3737 181.135 15.1641C181.395 14.9499 181.704 14.7812 182.064 14.6582C182.429 14.5306 182.835 14.4668 183.281 14.4668C183.819 14.4668 184.293 14.5579 184.703 14.7402C185.118 14.9225 185.441 15.1982 185.674 15.5674C185.911 15.932 186.029 16.39 186.029 16.9414V20.3867C186.029 20.6328 186.05 20.8949 186.091 21.1729C186.136 21.4508 186.202 21.6901 186.289 21.8906V22H184.97C184.906 21.8542 184.856 21.6605 184.819 21.4189C184.783 21.1729 184.765 20.945 184.765 20.7354ZM184.983 17.5156L184.997 18.4043H183.719C183.359 18.4043 183.037 18.4339 182.755 18.4932C182.472 18.5479 182.235 18.6322 182.044 18.7461C181.853 18.86 181.707 19.0036 181.606 19.1768C181.506 19.3454 181.456 19.5436 181.456 19.7715C181.456 20.0039 181.508 20.2158 181.613 20.4072C181.718 20.5986 181.875 20.7513 182.085 20.8652C182.299 20.9746 182.561 21.0293 182.871 21.0293C183.258 21.0293 183.6 20.9473 183.896 20.7832C184.193 20.6191 184.427 20.4186 184.601 20.1816C184.778 19.9447 184.874 19.7145 184.888 19.4912L185.428 20.0996C185.396 20.291 185.309 20.5029 185.168 20.7354C185.027 20.9678 184.838 21.1911 184.601 21.4053C184.368 21.6149 184.09 21.7904 183.767 21.9316C183.448 22.0684 183.088 22.1367 182.687 22.1367C182.185 22.1367 181.745 22.0387 181.367 21.8428C180.993 21.6468 180.702 21.3848 180.492 21.0566C180.287 20.724 180.185 20.3525 180.185 19.9424C180.185 19.5459 180.262 19.1973 180.417 18.8965C180.572 18.5911 180.795 18.3382 181.087 18.1377C181.379 17.9326 181.729 17.7777 182.14 17.6729C182.55 17.568 183.008 17.5156 183.514 17.5156H184.983ZM191.115 14.6035V15.5742H187.116V14.6035H191.115ZM188.47 12.8057H189.734V20.168C189.734 20.4186 189.773 20.6077 189.851 20.7354C189.928 20.863 190.028 20.9473 190.151 20.9883C190.274 21.0293 190.407 21.0498 190.548 21.0498C190.653 21.0498 190.762 21.0407 190.876 21.0225C190.994 20.9997 191.083 20.9814 191.143 20.9678L191.149 22C191.049 22.0319 190.917 22.0615 190.753 22.0889C190.593 22.1208 190.4 22.1367 190.172 22.1367C189.862 22.1367 189.577 22.0752 189.317 21.9521C189.058 21.8291 188.85 21.624 188.695 21.3369C188.545 21.0452 188.47 20.6533 188.47 20.1611V12.8057Z" fill="#A9A9A9"/>
<path fill-rule="evenodd" clip-rule="evenodd" d="M19.7823 8.66666C24.2573 8.66666 27.8973 12.3067 27.8973 16.7817C27.8973 18.8929 27.0871 20.8186 25.7612 22.2637L28.3702 24.8672C28.6143 25.1114 28.6152 25.5064 28.371 25.7506C28.2493 25.8739 28.0885 25.9347 27.9285 25.9347C27.7693 25.9347 27.6093 25.8739 27.4868 25.7522L24.8464 23.1192C23.4574 24.2315 21.6962 24.8975 19.7823 24.8975C15.3073 24.8975 11.6665 21.2567 11.6665 16.7817C11.6665 12.3067 15.3073 8.66666 19.7823 8.66666ZM19.7823 9.91666C15.9965 9.91666 12.9165 12.9958 12.9165 16.7817C12.9165 20.5675 15.9965 23.6475 19.7823 23.6475C23.5673 23.6475 26.6473 20.5675 26.6473 16.7817C26.6473 12.9958 23.5673 9.91666 19.7823 9.91666Z" fill="black" fill-opacity="0.3"/>
</g>
<defs>
<filter id="filter0_d_0_119" x="-50" y="-86" width="1253" height="840" filterUnits="userSpaceOnUse" color-interpolation-filters="sRGB">
<feFlood flood-opacity="0" result="BackgroundImageFix"/>
<feColorMatrix in="SourceAlpha" type="matrix" values="0 0 0 0 0 0 0 0 0 0 0 0 0 0 0 0 0 0 127 0" result="hardAlpha"/>
<feOffset dy="4"/>
<feGaussianBlur stdDeviation="15"/>
<feComposite in2="hardAlpha" operator="out"/>
<feColorMatrix type="matrix" values="0 0 0 0 0 0 0 0 0 0 0 0 0 0 0 0 0 0 0.25 0"/>
<feBlend mode="normal" in2="BackgroundImageFix" result="effect1_dropShadow_0_119"/>
<feBlend mode="normal" in="SourceGraphic" in2="effect1_dropShadow_0_119" result="shape"/>
</filter>
<clipPath id="clip0_0_119">
<rect width="1193" height="780" fill="white" transform="translate(-20 -60)"/>
</clipPath>
</defs>
</svg>
