<svg width="22" height="22" viewBox="0 0 22 22" fill="none" xmlns="http://www.w3.org/2000/svg">
<path d="M2.75 4.125H6.875V13.0625H2.75C2.56766 13.0625 2.3928 12.9901 2.26386 12.8611C2.13493 12.7322 2.0625 12.5573 2.0625 12.375V4.8125C2.0625 4.63016 2.13493 4.4553 2.26386 4.32636C2.3928 4.19743 2.56766 4.125 2.75 4.125V4.125Z" stroke="#CC3169" stroke-width="2" stroke-linecap="round" stroke-linejoin="round"/>
<path d="M6.875 13.0625L10.3125 19.9375C11.0418 19.9375 11.7413 19.6478 12.257 19.132C12.7728 18.6163 13.0625 17.9168 13.0625 17.1875V15.125H18.382C18.577 15.1255 18.7698 15.0842 18.9475 15.004C19.1252 14.9238 19.2837 14.8065 19.4123 14.66C19.5409 14.5135 19.6367 14.3411 19.6932 14.1545C19.7497 13.9679 19.7656 13.7714 19.7398 13.5781L18.7086 5.32812C18.6669 4.99694 18.5061 4.69224 18.2563 4.47086C18.0064 4.24949 17.6846 4.12655 17.3508 4.125H6.875" stroke="#CC3169" stroke-width="2" stroke-linecap="round" stroke-linejoin="round"/>
</svg>
